<svg width="258.301" height="83.301" viewBox="0 0 258.301 83.301" xmlns="http://www.w3.org/2000/svg"><g id="svgGroup" stroke-linecap="round" fill-rule="evenodd" font-size="9pt" stroke="#000" stroke-width="0mm" fill="#000" style="stroke:#000;stroke-width:0mm;fill:#000"><path d="M 0.1 69.601 L 14.3 36.101 A 0.651 0.651 0 0 0 14.367 35.974 Q 14.437 35.792 14.359 35.609 A 0.667 0.667 0 0 0 14.3 35.501 L 0.1 2.001 L 0 1.601 Q 0 0.801 0.9 0.801 L 2.1 0.801 Q 2.755 0.801 3.075 1.337 A 1.633 1.633 0 0 1 3.2 1.601 L 15.7 32.401 A 0.432 0.432 0 0 0 15.77 32.504 A 0.301 0.301 0 0 0 16 32.601 Q 16.2 32.601 16.3 32.401 L 28.8 1.601 Q 29.083 0.845 29.813 0.803 A 1.52 1.52 0 0 1 29.9 0.801 L 31.1 0.801 A 1.129 1.129 0 0 1 31.408 0.84 A 0.794 0.794 0 0 1 31.85 1.151 A 0.731 0.731 0 0 1 31.989 1.586 Q 31.989 1.779 31.9 2.001 L 17.6 35.601 A 0.945 0.945 0 0 0 17.55 35.896 Q 17.549 36.048 17.6 36.2 A 1.005 1.005 0 0 0 17.6 36.201 L 31.9 69.601 L 32 70.001 Q 32 70.801 31.1 70.801 L 29.9 70.801 Q 29.245 70.801 28.926 70.265 A 1.633 1.633 0 0 1 28.8 70.001 L 16.3 39.301 A 0.432 0.432 0 0 0 16.23 39.198 A 0.301 0.301 0 0 0 16 39.101 Q 15.8 39.101 15.7 39.301 L 3.2 70.001 Q 2.917 70.756 2.187 70.798 A 1.52 1.52 0 0 1 2.1 70.801 L 0.9 70.801 A 1.129 1.129 0 0 1 0.592 70.761 A 0.794 0.794 0 0 1 0.15 70.451 A 0.731 0.731 0 0 1 0.011 70.016 Q 0.011 69.823 0.1 69.601 Z M 142.4 55.701 L 142.4 15.801 A 19.978 19.978 0 0 1 142.989 10.815 A 14.202 14.202 0 0 1 146.6 4.301 A 14.078 14.078 0 0 1 155.24 0.14 A 19.479 19.479 0 0 1 157.6 0.001 A 18.45 18.45 0 0 1 162.549 0.631 A 13.699 13.699 0 0 1 168.8 4.301 A 14.424 14.424 0 0 1 172.63 11.781 A 20.813 20.813 0 0 1 173 15.801 L 173 17.801 Q 173 18.594 172.37 18.758 A 1.473 1.473 0 0 1 172 18.801 L 170.9 18.901 Q 170.107 18.901 169.943 18.271 A 1.473 1.473 0 0 1 169.9 17.901 L 169.9 15.601 A 16.075 16.075 0 0 0 169.422 11.574 A 11.577 11.577 0 0 0 166.5 6.301 A 11.386 11.386 0 0 0 159.429 2.904 A 15.724 15.724 0 0 0 157.6 2.801 Q 152.1 2.801 148.75 6.301 A 11.808 11.808 0 0 0 145.695 12.36 A 16.977 16.977 0 0 0 145.4 15.601 L 145.4 55.901 Q 145.4 61.701 148.75 65.251 Q 152.1 68.801 157.6 68.801 A 13.849 13.849 0 0 0 161.722 68.215 A 11.055 11.055 0 0 0 166.5 65.251 A 12.009 12.009 0 0 0 169.646 58.905 A 17.008 17.008 0 0 0 169.9 55.901 L 169.9 53.701 A 1.156 1.156 0 0 1 169.955 53.328 Q 170.13 52.813 170.864 52.801 A 2.163 2.163 0 0 1 170.9 52.801 L 172 52.901 Q 172.794 52.901 172.958 53.531 A 1.473 1.473 0 0 1 173 53.901 L 173 55.701 A 20.057 20.057 0 0 1 172.41 60.7 A 14.413 14.413 0 0 1 168.8 67.251 Q 164.6 71.601 157.6 71.601 A 17.261 17.261 0 0 1 152.506 70.883 A 13.672 13.672 0 0 1 146.6 67.251 A 14.653 14.653 0 0 1 142.751 59.625 A 20.967 20.967 0 0 1 142.4 55.701 Z M 215.1 70.001 L 203.2 37.301 A 0.532 0.532 0 0 0 203.128 37.156 Q 203.016 37.001 202.8 37.001 L 191.3 37.001 A 0.576 0.576 0 0 0 191.142 37.021 Q 190.964 37.072 190.917 37.253 A 0.589 0.589 0 0 0 190.9 37.401 L 190.9 69.801 Q 190.9 70.594 190.27 70.758 A 1.473 1.473 0 0 1 189.9 70.801 L 188.9 70.801 Q 188.107 70.801 187.943 70.171 A 1.473 1.473 0 0 1 187.9 69.801 L 187.9 1.801 Q 187.9 1.007 188.53 0.844 A 1.473 1.473 0 0 1 188.9 0.801 L 203.1 0.801 A 14.485 14.485 0 0 1 208.412 1.741 A 13.055 13.055 0 0 1 213.85 5.801 Q 217.687 10.537 217.889 18.145 A 32.199 32.199 0 0 1 217.9 19.001 A 26.22 26.22 0 0 1 217.389 24.317 A 18.511 18.511 0 0 1 214.8 30.751 Q 211.7 35.501 206.4 36.701 A 0.988 0.988 0 0 0 206.268 36.779 Q 206.036 36.945 206.09 37.167 A 0.423 0.423 0 0 0 206.1 37.201 L 218 69.701 L 218.1 70.101 Q 218.1 70.801 217.2 70.801 L 216.3 70.801 Q 215.461 70.801 215.143 70.105 A 1.627 1.627 0 0 1 215.1 70.001 Z M 89.7 36.501 L 89.7 69.801 Q 89.7 70.594 89.07 70.758 A 1.473 1.473 0 0 1 88.7 70.801 L 87.7 70.801 Q 86.907 70.801 86.743 70.171 A 1.473 1.473 0 0 1 86.7 69.801 L 86.7 65.301 A 0.682 0.682 0 0 0 86.691 65.182 Q 86.656 64.99 86.5 64.951 Q 86.307 64.903 86.207 65.181 A 0.925 0.925 0 0 0 86.2 65.201 Q 84.3 68.401 81.1 70.001 A 15.3 15.3 0 0 1 75.202 71.562 A 18.257 18.257 0 0 1 74 71.601 A 14.713 14.713 0 0 1 69.477 70.931 A 12.446 12.446 0 0 1 65.2 68.551 A 8.884 8.884 0 0 1 62.739 65.03 Q 62.134 63.537 61.85 61.647 A 24.643 24.643 0 0 1 61.6 58.001 A 29.595 29.595 0 0 1 61.6 57.876 Q 61.634 49.97 65.9 46.101 Q 70.2 42.201 77.4 42.201 L 86.3 42.201 A 0.576 0.576 0 0 0 86.458 42.181 Q 86.636 42.13 86.683 41.949 A 0.589 0.589 0 0 0 86.7 41.801 L 86.7 36.301 Q 86.7 31.627 85.166 28.373 A 12.076 12.076 0 0 0 84 26.401 A 8.753 8.753 0 0 0 77.587 22.774 A 12.769 12.769 0 0 0 76.2 22.701 Q 72.2 22.701 69.2 25.151 A 9.073 9.073 0 0 0 65.813 31.379 A 11.163 11.163 0 0 0 65.8 31.501 A 1.156 1.156 0 0 1 65.745 31.873 Q 65.57 32.388 64.836 32.401 A 2.163 2.163 0 0 1 64.8 32.401 L 63.7 32.301 A 1.328 1.328 0 0 1 63.412 32.272 Q 63.219 32.229 63.079 32.123 A 0.763 0.763 0 0 1 62.95 32.001 Q 62.729 31.736 62.782 31.314 A 1.564 1.564 0 0 1 62.8 31.201 A 12.57 12.57 0 0 1 64.319 26.41 A 11.914 11.914 0 0 1 67.25 23.001 A 13.98 13.98 0 0 1 76.219 19.901 A 17.393 17.393 0 0 1 76.3 19.901 A 14.574 14.574 0 0 1 80.526 20.482 A 11.103 11.103 0 0 1 86.2 24.401 Q 89.7 28.901 89.7 36.501 Z M 258.3 16.201 L 258.3 55.401 A 21.047 21.047 0 0 1 257.734 60.412 A 15.296 15.296 0 0 1 254.8 66.451 A 13.517 13.517 0 0 1 245.948 71.427 A 17.661 17.661 0 0 1 245.4 71.501 A 0.576 0.576 0 0 0 245.242 71.521 Q 245.064 71.572 245.017 71.753 A 0.589 0.589 0 0 0 245 71.901 L 245 82.301 Q 245 83.094 244.37 83.258 A 1.473 1.473 0 0 1 244 83.301 L 242.9 83.301 Q 242.107 83.301 241.943 82.671 A 1.473 1.473 0 0 1 241.9 82.301 L 241.9 71.901 A 0.576 0.576 0 0 0 241.88 71.743 Q 241.829 71.565 241.648 71.518 A 0.589 0.589 0 0 0 241.5 71.501 Q 235.7 70.801 232.15 66.401 A 15.797 15.797 0 0 1 228.881 58.939 A 21.477 21.477 0 0 1 228.6 55.401 L 228.6 16.201 A 20.392 20.392 0 0 1 229.233 10.988 A 15.083 15.083 0 0 1 232.75 4.501 A 13.766 13.766 0 0 1 242.584 0.023 A 18.631 18.631 0 0 1 243.5 0.001 A 15.73 15.73 0 0 1 248.624 0.802 A 13.266 13.266 0 0 1 254.2 4.501 A 15.441 15.441 0 0 1 257.971 12.339 A 21.734 21.734 0 0 1 258.3 16.201 Z M 255.3 55.601 L 255.3 16.001 Q 255.3 10.101 252 6.451 A 10.825 10.825 0 0 0 244.143 2.815 A 14.326 14.326 0 0 0 243.5 2.801 Q 238.2 2.801 234.9 6.501 A 12.814 12.814 0 0 0 231.833 13.068 A 17.774 17.774 0 0 0 231.6 16.001 L 231.6 55.601 A 16.663 16.663 0 0 0 232.14 59.947 A 12.518 12.518 0 0 0 234.9 65.101 A 10.855 10.855 0 0 0 242.845 68.786 A 14.665 14.665 0 0 0 243.5 68.801 A 12.059 12.059 0 0 0 247.789 68.064 A 10.74 10.74 0 0 0 252 65.151 Q 255.3 61.501 255.3 55.601 Z M 101.9 57.101 L 101.9 34.401 A 16.893 16.893 0 0 1 102.611 29.393 A 13.677 13.677 0 0 1 105.75 24.001 A 12.815 12.815 0 0 1 114.668 19.931 A 17.327 17.327 0 0 1 115.7 19.901 A 14.783 14.783 0 0 1 120.527 20.658 A 12.525 12.525 0 0 1 125.65 24.001 A 14.059 14.059 0 0 1 129.386 32.3 A 18.911 18.911 0 0 1 129.5 34.401 L 129.5 57.101 A 17.375 17.375 0 0 1 128.865 61.913 A 13.448 13.448 0 0 1 125.65 67.551 A 12.847 12.847 0 0 1 116.916 71.559 A 17.397 17.397 0 0 1 115.7 71.601 Q 109.6 71.601 105.75 67.551 A 13.799 13.799 0 0 1 102.084 59.788 A 18.966 18.966 0 0 1 101.9 57.101 Z M 126.5 57.101 L 126.5 34.401 A 14.715 14.715 0 0 0 126.042 30.636 A 10.89 10.89 0 0 0 123.5 25.951 A 9.954 9.954 0 0 0 116.512 22.725 A 13.524 13.524 0 0 0 115.7 22.701 A 11.542 11.542 0 0 0 111.971 23.279 A 9.726 9.726 0 0 0 107.9 25.951 A 11.125 11.125 0 0 0 105.118 31.739 A 15.605 15.605 0 0 0 104.9 34.401 L 104.9 57.101 A 14.715 14.715 0 0 0 105.358 60.866 A 10.89 10.89 0 0 0 107.9 65.551 A 9.954 9.954 0 0 0 114.888 68.777 A 13.524 13.524 0 0 0 115.7 68.801 A 11.542 11.542 0 0 0 119.43 68.222 A 9.726 9.726 0 0 0 123.5 65.551 A 11.125 11.125 0 0 0 126.282 59.762 A 15.605 15.605 0 0 0 126.5 57.101 Z M 45.1 69.801 L 45.1 21.701 Q 45.1 20.907 45.73 20.744 A 1.473 1.473 0 0 1 46.1 20.701 L 47.1 20.701 Q 47.894 20.701 48.058 21.331 A 1.473 1.473 0 0 1 48.1 21.701 L 48.1 69.801 Q 48.1 70.594 47.47 70.758 A 1.473 1.473 0 0 1 47.1 70.801 L 46.1 70.801 Q 45.307 70.801 45.143 70.171 A 1.473 1.473 0 0 1 45.1 69.801 Z M 190.9 4.001 L 190.9 33.901 A 0.576 0.576 0 0 0 190.92 34.059 Q 190.971 34.237 191.152 34.284 A 0.589 0.589 0 0 0 191.3 34.301 L 203 34.301 Q 208.307 34.301 211.537 30.245 A 13.079 13.079 0 0 0 211.65 30.101 A 14.771 14.771 0 0 0 214.233 24.7 Q 214.775 22.61 214.877 20.154 A 27.88 27.88 0 0 0 214.9 19.001 A 23.866 23.866 0 0 0 214.462 14.291 Q 213.884 11.419 212.543 9.17 A 13.814 13.814 0 0 0 211.65 7.851 Q 208.505 3.738 203.346 3.605 A 13.463 13.463 0 0 0 203 3.601 L 191.3 3.601 A 0.576 0.576 0 0 0 191.142 3.621 Q 190.964 3.672 190.917 3.853 A 0.589 0.589 0 0 0 190.9 4.001 Z M 86.7 56.401 L 86.7 45.301 A 0.576 0.576 0 0 0 86.68 45.143 Q 86.629 44.965 86.448 44.918 A 0.589 0.589 0 0 0 86.3 44.901 L 77.5 44.901 A 17.136 17.136 0 0 0 73.569 45.327 A 11.721 11.721 0 0 0 68.1 48.201 A 10.525 10.525 0 0 0 65.246 52.973 Q 64.6 55.151 64.6 57.901 A 17.874 17.874 0 0 0 64.838 60.92 Q 65.402 64.202 67.3 66.101 A 9.081 9.081 0 0 0 72.557 68.672 A 12.703 12.703 0 0 0 74.4 68.801 Q 79.4 68.801 83.05 65.601 Q 86.7 62.401 86.7 56.401 Z M 45.147 9.295 A 4.909 4.909 0 0 0 46.6 9.501 A 5.316 5.316 0 0 0 46.716 9.5 A 4.048 4.048 0 0 0 49.6 8.301 A 3.939 3.939 0 0 0 50.594 6.654 A 4.909 4.909 0 0 0 50.8 5.201 A 5.316 5.316 0 0 0 50.799 5.085 A 4.048 4.048 0 0 0 49.6 2.201 A 3.986 3.986 0 0 0 48.18 1.273 A 4.436 4.436 0 0 0 46.6 1.001 A 5.525 5.525 0 0 0 46.01 1.032 A 4.048 4.048 0 0 0 43.5 2.201 A 3.986 3.986 0 0 0 42.573 3.622 A 4.436 4.436 0 0 0 42.3 5.201 A 5.525 5.525 0 0 0 42.331 5.792 A 4.048 4.048 0 0 0 43.5 8.301 A 3.939 3.939 0 0 0 45.147 9.295 Z"/></g></svg>