<svg id="eHMPod1CE9t1" xmlns="http://www.w3.org/2000/svg" xmlns:xlink="http://www.w3.org/1999/xlink" viewBox="0 0 280 400" shape-rendering="geometricPrecision" text-rendering="geometricPrecision" project-id="0bab6621ec4e45b7822749fcd6fbf1b9" export-id="f7adcaa557724cfa9bedcac2f546987f" cached="false"><g transform="translate(.000001 0.000001)"><path d="M36.00057,399.99998C16.118,399.99998,0,382.23094,0,360.31171L0,39.68828C0,17.76905,16.118,0.00001,36.00057,0.00001h207.99886C263.882,0.00001,280,17.76905,280,39.68828v320.62343c0,21.91923-16.118,39.68827-36.00057,39.68827h-207.99886Zm53.25474-98.79303l14.35726,16.47555c1.60048,1.78877,3.85999,2.82438,6.26071,2.82438s4.7073-1.03561,6.26071-2.82438l12.52142-14.35726c6.02534-6.87266,16.71092-6.87266,22.68919,0l12.52142,14.35726c1.60048,1.78877,3.85999,2.82438,6.26071,2.82438s4.7073-1.03561,6.26071-2.82438l14.35727-16.47555c5.31925-6.07242,14.45141-6.87266,20.75919-1.83585l5.27218,4.23657c1.50634,1.17683,3.34218,1.83585,5.2251,1.83585c4.61315,0,8.37899-3.76584,8.37899-8.37899v-127.19125c0-49.89738-40.48278-90.38016-90.38016-90.38016s-90.38016,40.48278-90.38016,90.38016v127.19125c0,4.61315,3.76584,8.37899,8.37899,8.37899c1.88292,0,3.71877-.65902,5.2251-1.83585l5.27218-4.23657c6.30778-5.03681,15.43994-4.23657,20.75919,1.83585Zm20.61797-116.27031c-8.31926,0-15.06336-6.7441-15.06336-15.06336s6.7441-15.06336,15.06336-15.06336s15.06336,6.7441,15.06336,15.06336-6.7441,15.06336-15.06336,15.06336Zm45.19008-15.06336c0-8.31926,6.7441-15.06336,15.06336-15.06336s15.06336,6.7441,15.06336,15.06336-6.7441,15.06336-15.06336,15.06336-15.06336-6.7441-15.06336-15.06336Z" fill="#fff" stroke-width="0"/></g></svg>
