<svg id="exKtIbkEa9h1" xmlns="http://www.w3.org/2000/svg" xmlns:xlink="http://www.w3.org/1999/xlink" viewBox="0 0 280 400" shape-rendering="geometricPrecision" text-rendering="geometricPrecision" project-id="0bab6621ec4e45b7822749fcd6fbf1b9" export-id="0f5bd5aca42940b29330296e6edabec9" cached="false"><g transform="translate(.000001 0.000001)"><path d="M36.00057,399.99998C16.118,399.99998,0,382.23094,0,360.31171L0,39.68828C0,17.76905,16.118,0.00001,36.00057,0.00001h207.99886C263.882,0.00001,280,17.76905,280,39.68828v320.62343c0,21.91923-16.118,39.68827-36.00057,39.68827h-207.99886ZM140,200c28.5232,0,51.64582-23.12239,51.64582-51.64531s-23.12262-51.64531-51.64582-51.64531-51.64582,23.12239-51.64582,51.64531s23.12262,51.64531,51.64582,51.64531Zm-18.43917,19.36699c-39.74308,0-71.94102,32.19762-71.94102,71.94031c0,6.61706,5.36632,11.98333,11.98345,11.98333h156.79349c6.61712,0,11.98345-5.36627,11.98345-11.98333c0-39.74268-32.19794-71.94031-71.94102-71.94031h-36.87835Z" stroke-width="0"/></g></svg>
